<svg version="1.1" xmlns="http://www.w3.org/2000/svg" xmlns:xlink="http://www.w3.org/1999/xlink" width="496" height="205"><defs></defs><g><g transform="translate(-66,-74) scale(1,1)"><rect fill="#C0C0C0" stroke="none" x="83" y="107" width="80" height="37" opacity="0.2"></rect></g><g transform="translate(-66,-74) scale(1,1)"><rect fill="#ffffff" stroke="none" x="76" y="100" width="80" height="37"></rect></g><g transform="translate(-66,-74) scale(1,1)"><path fill="none" stroke="#000000" d="M 76 100 L 156 100 L 156 137 L 76 137 L 76 100 Z Z" stroke-miterlimit="10"></path></g><g transform="translate(-66,-74) scale(1,1)"><rect fill="#ffffff" stroke="none" x="76" y="100" width="80" height="37"></rect></g><g transform="translate(-66,-74) scale(1,1)"><path fill="none" stroke="#000000" d="M 76 100 L 156 100 L 156 137 L 76 137 L 76 100 Z Z" stroke-miterlimit="10"></path></g><g transform="translate(-66,-74) scale(1,1)"><g><path fill="none" stroke="none"></path><text fill="#000000" stroke="none" font-family="Arial" font-size="13px" font-style="normal" font-weight="normal" text-decoration="none" x="80.5" y="117.5">«persistent»</text></g></g><g transform="translate(-66,-74) scale(1,1)"><g><path fill="none" stroke="none"></path><text fill="#000000" stroke="none" font-family="Arial" font-size="13px" font-style="normal" font-weight="bold" text-decoration="none" x="89" y="132.5">root node</text><path fill="none" stroke="#000000" d="M 146.5 132.5 L 85.5 132.5" stroke-miterlimit="10"></path></g></g><g transform="translate(-66,-74) scale(1,1)"><rect fill="#C0C0C0" stroke="none" x="235" y="107" width="80" height="37" opacity="0.2"></rect></g><g transform="translate(-66,-74) scale(1,1)"><rect fill="#ffffff" stroke="none" x="228" y="100" width="80" height="37"></rect></g><g transform="translate(-66,-74) scale(1,1)"><path fill="none" stroke="#000000" d="M 228 100 L 308 100 L 308 137 L 228 137 L 228 100 Z Z" stroke-miterlimit="10"></path></g><g transform="translate(-66,-74) scale(1,1)"><rect fill="#ffffff" stroke="none" x="228" y="100" width="80" height="37"></rect></g><g transform="translate(-66,-74) scale(1,1)"><path fill="none" stroke="#000000" d="M 228 100 L 308 100 L 308 137 L 228 137 L 228 100 Z Z" stroke-miterlimit="10"></path></g><g transform="translate(-66,-74) scale(1,1)"><g><path fill="none" stroke="none"></path><text fill="#000000" stroke="none" font-family="Arial" font-size="13px" font-style="normal" font-weight="normal" text-decoration="none" x="232.5" y="117.5">«persistent»</text></g></g><g transform="translate(-66,-74) scale(1,1)"><g><path fill="none" stroke="none"></path><text fill="#000000" stroke="none" font-family="Arial" font-size="13px" font-style="normal" font-weight="bold" text-decoration="none" x="250.5" y="132.5">nodes</text><path fill="none" stroke="#000000" d="M 287 132.5 L 249 132.5" stroke-miterlimit="10"></path></g></g><g transform="translate(-66,-74) scale(1,1)"><path fill="none" stroke="#000000" d="M 157 118 L 227 118" stroke-miterlimit="10"></path></g><g transform="translate(-66,-74) scale(1,1)"><path fill="none" stroke="#000000" d="M 216.83732514237585 122.20951775601598 L 227 118 L 216.83732514237585 113.79048224398402" stroke-miterlimit="10"></path></g><g transform="translate(-66,-74) scale(1,1)"><rect fill="#C0C0C0" stroke="none" x="411" y="91" width="146" height="37" opacity="0.2"></rect></g><g transform="translate(-66,-74) scale(1,1)"><rect fill="#ffffff" stroke="none" x="404" y="84" width="146" height="37"></rect></g><g transform="translate(-66,-74) scale(1,1)"><path fill="none" stroke="#000000" d="M 404 84 L 550 84 L 550 121 L 404 121 L 404 84 Z Z" stroke-miterlimit="10"></path></g><g transform="translate(-66,-74) scale(1,1)"><rect fill="#ffffff" stroke="none" x="404" y="84" width="146" height="37"></rect></g><g transform="translate(-66,-74) scale(1,1)"><path fill="none" stroke="#000000" d="M 404 84 L 550 84 L 550 121 L 404 121 L 404 84 Z Z" stroke-miterlimit="10"></path></g><g transform="translate(-66,-74) scale(1,1)"><g><path fill="none" stroke="none"></path><text fill="#000000" stroke="none" font-family="Arial" font-size="13px" font-style="normal" font-weight="normal" text-decoration="none" x="408.5" y="101.5">«ephemeral sequential»</text></g></g><g transform="translate(-66,-74) scale(1,1)"><g><path fill="none" stroke="none"></path><text fill="#000000" stroke="none" font-family="Arial" font-size="13px" font-style="normal" font-weight="bold" text-decoration="none" x="424.5" y="116.5">node_0000000004</text><path fill="none" stroke="#000000" d="M 531.5 116.5 L 422.5 116.5" stroke-miterlimit="10"></path></g></g><g transform="translate(-66,-74) scale(1,1)"><rect fill="#C0C0C0" stroke="none" x="411" y="239" width="146" height="37" opacity="0.2"></rect></g><g transform="translate(-66,-74) scale(1,1)"><rect fill="#ffffff" stroke="none" x="404" y="232" width="146" height="37"></rect></g><g transform="translate(-66,-74) scale(1,1)"><path fill="none" stroke="#000000" d="M 404 232 L 550 232 L 550 269 L 404 269 L 404 232 Z Z" stroke-miterlimit="10"></path></g><g transform="translate(-66,-74) scale(1,1)"><rect fill="#ffffff" stroke="none" x="404" y="232" width="146" height="37"></rect></g><g transform="translate(-66,-74) scale(1,1)"><path fill="none" stroke="#000000" d="M 404 232 L 550 232 L 550 269 L 404 269 L 404 232 Z Z" stroke-miterlimit="10"></path></g><g transform="translate(-66,-74) scale(1,1)"><g><path fill="none" stroke="none"></path><text fill="#000000" stroke="none" font-family="Arial" font-size="13px" font-style="normal" font-weight="normal" text-decoration="none" x="408.5" y="249.5">«ephemeral sequential»</text></g></g><g transform="translate(-66,-74) scale(1,1)"><g><path fill="none" stroke="none"></path><text fill="#000000" stroke="none" font-family="Arial" font-size="13px" font-style="normal" font-weight="bold" text-decoration="none" x="424.5" y="264.5">node_0000000004</text><path fill="none" stroke="#000000" d="M 531.5 264.5 L 422.5 264.5" stroke-miterlimit="10"></path></g></g><g transform="translate(-66,-74) scale(1,1)"><rect fill="#C0C0C0" stroke="none" x="411" y="139" width="146" height="37" opacity="0.2"></rect></g><g transform="translate(-66,-74) scale(1,1)"><rect fill="#ffffff" stroke="none" x="404" y="132" width="146" height="37"></rect></g><g transform="translate(-66,-74) scale(1,1)"><path fill="none" stroke="#000000" d="M 404 132 L 550 132 L 550 169 L 404 169 L 404 132 Z Z" stroke-miterlimit="10"></path></g><g transform="translate(-66,-74) scale(1,1)"><rect fill="#ffffff" stroke="none" x="404" y="132" width="146" height="37"></rect></g><g transform="translate(-66,-74) scale(1,1)"><path fill="none" stroke="#000000" d="M 404 132 L 550 132 L 550 169 L 404 169 L 404 132 Z Z" stroke-miterlimit="10"></path></g><g transform="translate(-66,-74) scale(1,1)"><g><path fill="none" stroke="none"></path><text fill="#000000" stroke="none" font-family="Arial" font-size="13px" font-style="normal" font-weight="normal" text-decoration="none" x="408.5" y="149.5">«ephemeral sequential»</text></g></g><g transform="translate(-66,-74) scale(1,1)"><g><path fill="none" stroke="none"></path><text fill="#000000" stroke="none" font-family="Arial" font-size="13px" font-style="normal" font-weight="bold" text-decoration="none" x="424.5" y="164.5">node_0000000004</text><path fill="none" stroke="#000000" d="M 531.5 164.5 L 422.5 164.5" stroke-miterlimit="10"></path></g></g><g transform="translate(-66,-74) scale(1,1)"><path fill="#ffffff" stroke="none" d="M 404 180 L 541 180 L 551 190 L 551 223 L 404 223 L 404 180"></path></g><g transform="translate(-66,-74) scale(1,1)"><path fill="none" stroke="#000000" d="M 404 180 L 541 180 L 551 190 L 551 223 L 404 223 L 404 180 L 404 180" stroke-miterlimit="10"></path></g><g transform="translate(-66,-74) scale(1,1)"><path fill="none" stroke="#000000" d="M 541 180 L 541 190 L 551 190 L 541 180" stroke-miterlimit="10"></path></g><g transform="translate(-66,-74) scale(1,1)"><g><path fill="none" stroke="none"></path><text fill="#000000" stroke="none" font-family="Arial" font-size="13px" font-style="normal" font-weight="normal" text-decoration="none" x="409" y="198">node 3 died...</text></g></g><g transform="translate(-66,-74) scale(1,1)"><path fill="none" stroke="#000000" d="M 308 120 L 344 120 L 344 104 L 404 104" stroke-miterlimit="10"></path></g><g transform="translate(-66,-74) scale(1,1)"><path fill="none" stroke="#000000" d="M 393.83732514237585 108.20951775601598 L 404 104 L 393.83732514237585 99.79048224398402" stroke-miterlimit="10"></path></g><g transform="translate(-66,-74) scale(1,1)"><path fill="none" stroke="#000000" d="M 308 120 L 344 120 L 344 149 L 404 149" stroke-miterlimit="10"></path></g><g transform="translate(-66,-74) scale(1,1)"><path fill="none" stroke="#000000" d="M 393.83732514237585 153.209517756016 L 404 149 L 393.83732514237585 144.790482243984" stroke-miterlimit="10"></path></g><g transform="translate(-66,-74) scale(1,1)"><path fill="none" stroke="#000000" d="M 308 120 L 344 120 L 344 249 L 404 249" stroke-miterlimit="10"></path></g><g transform="translate(-66,-74) scale(1,1)"><path fill="none" stroke="#000000" d="M 393.83732514237585 253.209517756016 L 404 249 L 393.83732514237585 244.790482243984" stroke-miterlimit="10"></path></g></g></svg>